<svg xmlns="http://www.w3.org/2000/svg" width="577.545" height="577.545" viewBox="0 0 577.545 577.545">
<path d="M245.53 245.532c4.894-4.896 11.42-7.59 18.376-7.59s13.482 2.697 18.375 7.59l49.74 49.734c1.73 1.72 4.06 2.69 6.49 2.69s4.77-.968 6.49-2.69l49.74-49.734c1.73-1.72 2.69-4.058 2.69-6.49 0-2.433-.96-4.77-2.69-6.49L345 182.818c-21.67-21.662-50.47-33.59-81.094-33.59s-59.425 11.93-81.093 33.587L33.6 332.022C11.934 353.69 0 382.494 0 413.128c0 30.637 11.934 59.432 33.605 81.084l49.73 49.73c21.65 21.668 50.448 33.603 81.082 33.603s59.438-11.935 81.108-33.603l84.083-84.082c2.705-2.705 3.448-6.803 1.87-10.285-1.497-3.295-4.777-5.386-8.357-5.386-.2 0-.4 0-.61.02-2.96.2-5.96.29-8.91.29-23.35 0-46.32-6.21-66.41-17.96-1.44-.85-3.04-1.26-4.63-1.26-2.37 0-4.72.92-6.49 2.69l-53.24 53.23c-4.9 4.9-11.423 7.602-18.37 7.602-6.95 0-13.48-2.7-18.38-7.604l-49.735-49.73c-4.91-4.894-7.61-11.41-7.615-18.346-.006-6.95 2.7-13.49 7.613-18.405l149.2-149.204z"/>
<path d="M543.942 83.324L494.208 33.59C472.556 11.93 443.762 0 413.128 0s-59.438 11.928-81.105 33.587l-84.086 84.12c-2.705 2.704-3.448 6.805-1.867 10.287 1.497 3.292 4.777 5.382 8.354 5.382.205 0 .413-.006.62-.02 2.988-.203 6.014-.304 9-.304 23.4 0 46.317 6.206 66.275 17.947 1.45.85 3.05 1.26 4.65 1.26 2.37 0 4.72-.92 6.49-2.69l53.27-53.27c4.89-4.9 11.42-7.59 18.37-7.59s13.48 2.69 18.37 7.59l49.73 49.73c10.124 10.13 10.124 26.63 0 36.77L332 332c-4.89 4.904-11.41 7.603-18.35 7.603-6.95 0-13.49-2.7-18.41-7.61l-49.72-49.724c-1.72-1.72-4.05-2.69-6.49-2.69-2.43 0-4.77.96-6.49 2.69L182.815 332c-3.586 3.588-3.586 9.4 0 12.985l49.734 49.73c21.67 21.67 50.47 33.6 81.09 33.6 30.623 0 59.424-11.933 81.09-33.6l149.217-149.2c21.67-21.658 33.603-50.46 33.603-81.1s-11.94-59.444-33.605-81.104z"/>
</svg>
