<svg xmlns="http://www.w3.org/2000/svg" width="512" height="512" viewBox="0 0 512 512"><radialGradient id="a" cx="256" cy="258" r="256" gradientTransform="matrix(1 0 0 -1 0 514)" gradientUnits="userSpaceOnUse"><stop offset=".005" stop-color="#95A5A6"/><stop offset="1" stop-color="#7F8C8D"/></radialGradient><circle cx="256" cy="256" r="256" fill="url(#a)"/><path fill="#EC7C2D" d="M330 169h-4c-11 0-20-9-20-20V80c0-27.5-22.5-50-50-50s-50 22.5-50 50v69c0 11-9 20-20 20h-9c-3.175 0-6.295.76-9.182 2.073C147.17 177.226 132 196.423 132 219v36h248v-36c0-27.5-22.5-50-50-50zm-74-50.558c-14.496 0-26.248-11.752-26.248-26.25 0-14.495 11.752-26.247 26.248-26.247s26.248 11.752 26.248 26.248c0 14.497-11.752 26.25-26.248 26.25z"/><path fill="#32495D" d="M141 248v93.817c6.678 3.73 13.453 7.343 25.004 5.18 23.582-4.416 19.9-24.075 43.482-28.49s27.264 15.24 50.848 10.824c23.582-4.414 19.9-24.072 43.483-28.49 23.585-4.416 27.267 15.24 50.85 10.825 7.742-1.45 12.538-4.544 16.333-8.2V248H141z"/><path fill="#D9521E" d="M132 231h248v17H132z"/><path fill="#F4C342" d="M391 252.5c0 5.247-4.254 9.5-9.5 9.5h-251c-5.246 0-9.5-4.253-9.5-9.5s4.254-9.5 9.5-9.5h251c5.246 0 9.5 4.253 9.5 9.5z"/><path fill="#ECF0F1" d="M391 252.5c0 5.247-4.254 9.5-9.5 9.5h-251c-5.246 0-9.5-4.253-9.5-9.5s4.254-9.5 9.5-9.5h251c5.246 0 9.5 4.253 9.5 9.5z"/><path fill="#D9521E" d="M256 65.945c12.785 0 23.432 9.145 25.766 21.248.313-1.62.482-3.29.482-5 0-14.496-11.752-26.248-26.248-26.248s-26.248 11.752-26.248 26.248c0 1.71.168 3.38.48 5C232.57 75.09 243.216 65.945 256 65.945zM229.5 200.5c-1.934 0-3.5-1.567-3.5-3.5v-63c0-1.933 1.566-3.5 3.5-3.5 1.933 0 3.5 1.567 3.5 3.5v63c0 1.933-1.567 3.5-3.5 3.5zm31 6c-1.934 0-3.5-1.567-3.5-3.5v-69c0-1.933 1.566-3.5 3.5-3.5 1.933 0 3.5 1.567 3.5 3.5v69c0 1.933-1.567 3.5-3.5 3.5zm32 13c-1.934 0-3.5-1.567-3.5-3.5v-37c0-1.933 1.566-3.5 3.5-3.5 1.933 0 3.5 1.567 3.5 3.5v37c0 1.933-1.567 3.5-3.5 3.5zm45 7c-1.934 0-3.5-1.567-3.5-3.5v-32c0-1.933 1.566-3.5 3.5-3.5 1.933 0 3.5 1.567 3.5 3.5v32c0 1.933-1.567 3.5-3.5 3.5zm-165-5c-1.934 0-3.5-1.567-3.5-3.5v-24c0-1.933 1.566-3.5 3.5-3.5 1.933 0 3.5 1.567 3.5 3.5v24c0 1.933-1.567 3.5-3.5 3.5z"/><path fill="#EE483C" d="M354.668 311.663c-10.78 2.02-17.402-.995-23.668-4.438V279c0-1.933-1.567-3.5-3.5-3.5-1.934 0-3.5 1.567-3.5 3.5v24.463c-5.332-2.562-11.367-4.275-20.183-2.624-4.99.932-8.752 2.554-11.817 4.564V285c0-1.933-1.567-3.5-3.5-3.5-1.934 0-3.5 1.567-3.5 3.5v26.635c-6.235 7.01-10.604 15.062-24.666 17.696-10.02 1.88-16.447-.593-22.334-3.715V302c0-1.933-1.567-3.5-3.5-3.5-1.934 0-3.5 1.567-3.5 3.5v19.794c-5.67-2.913-11.957-5.077-21.514-3.288-10.805 2.023-15.885 7.247-20.486 12.737V294c0-1.933-1.567-3.5-3.5-3.5-1.934 0-3.5 1.567-3.5 3.5v45.118c-3.742 3.516-8.482 6.472-15.996 7.88-11.55 2.162-18.326-1.45-25.004-5.18V402l43-5.608V363l9.712 32.125 57.13-7.452L252 368l5.775 18.77 52.315-6.825L328 355l1.973 22.352L371 372v-68.536c-3.795 3.655-8.59 6.75-16.332 8.2z"/><path fill="#EE483C" d="M370.79 411c-15-30-.208-39-.208-39H345s15 9 0 39 13 30 13 30 27.79 0 12.79-30z"/></svg>
